<svg viewBox="0 0 800 500" preserveAspectRatio="none" xmlns="http://www.w3.org/2000/svg" xmlns:xlink="http://www.w3.org/1999/xlink" width="100%" id="blobSvg">
  <g transform="translate(-400, 142)">
    <path class="blob" d="M390.5,285.5Q360,321,320.5,319.5Q281,318,257,343.5Q233,369,191,368Q149,367,84,342.5Q19,318,23,251.5Q27,185,107,181Q187,177,210.5,159Q234,141,255.5,166Q277,191,329,178.5Q381,166,401,208Q421,250,390.5,285.5Z" fill="#d1d8e0"></path>
  </g>
  <g transform="translate(-18, -241)">
    <path class="blob" d="M390.5,285.5Q360,321,320.5,319.5Q281,318,257,343.5Q233,369,191,368Q149,367,84,342.5Q19,318,23,251.5Q27,185,107,181Q187,177,210.5,159Q234,141,255.5,166Q277,191,329,178.5Q381,166,401,208Q421,250,390.5,285.5Z" fill="#d1d8e0"></path>
  </g>
  <g transform="translate(343, 216)">
    <path class="blob" d="M390.5,285.5Q360,321,320.5,319.5Q281,318,257,343.5Q233,369,191,368Q149,367,84,342.5Q19,318,23,251.5Q27,185,107,181Q187,177,210.5,159Q234,141,255.5,166Q277,191,329,178.5Q381,166,401,208Q421,250,390.5,285.5Z" fill="#d1d8e0"></path>
  </g>
  <g transform="translate(-367, 116)">
    <path class="blob" d="M390.5,285.5Q360,321,320.5,319.5Q281,318,257,343.5Q233,369,191,368Q149,367,84,342.5Q19,318,23,251.5Q27,185,107,181Q187,177,210.5,159Q234,141,255.5,166Q277,191,329,178.5Q381,166,401,208Q421,250,390.5,285.5Z" fill="#d1d8e0"></path>
  </g>
  <g transform="translate(266, 5)">
    <path class="blob" d="M390.5,285.5Q360,321,320.5,319.5Q281,318,257,343.5Q233,369,191,368Q149,367,84,342.5Q19,318,23,251.5Q27,185,107,181Q187,177,210.5,159Q234,141,255.5,166Q277,191,329,178.5Q381,166,401,208Q421,250,390.5,285.5Z" fill="#d1d8e0"></path>
  </g>
</svg>