<?xml version="1.0" standalone="no"?>
<!DOCTYPE svg PUBLIC "-//W3C//DTD SVG 20010904//EN"
 "http://www.w3.org/TR/2001/REC-SVG-20010904/DTD/svg10.dtd">
<svg version="1.0" xmlns="http://www.w3.org/2000/svg"
 width="2865.000000pt" height="2006.000000pt" viewBox="0 0 2865.000000 2006.000000"
 preserveAspectRatio="xMidYMid meet">

<g transform="translate(0.000000,2006.000000) scale(0.100000,-0.100000)"
fill="#000000" stroke="none">
<path d="M21779 5853 c-9 -10 -8 -17 1 -28 9 -11 33 -15 89 -15 90 0 183 -20
220 -47 14 -11 35 -37 46 -59 20 -38 20 -59 20 -1069 0 -1089 -1 -1119 -46
-1207 -25 -49 -62 -66 -161 -74 -40 -3 -83 -7 -95 -10 -25 -5 -31 -28 -10 -41
17 -11 1188 -12 1210 -1 21 11 22 34 1 42 -9 3 -39 6 -67 6 -93 0 -217 19
-248 37 -39 23 -66 75 -80 155 -8 42 -13 410 -16 1098 -3 869 -2 1038 10 1054
10 14 33 20 91 26 303 30 570 -132 662 -401 32 -91 43 -256 25 -351 -36 -185
-186 -359 -366 -424 -33 -12 -99 -25 -147 -29 -92 -8 -121 -22 -99 -49 17 -20
100 -26 224 -15 361 31 642 203 772 474 187 391 37 755 -365 883 -168 54 -182
55 -948 57 -585 2 -714 -1 -723 -12z"/>
<path d="M15710 5770 c-383 -49 -611 -308 -562 -640 31 -217 148 -375 462
-625 91 -72 191 -159 222 -193 242 -262 141 -605 -193 -654 -51 -8 -90 -7
-142 1 -195 32 -309 162 -337 384 -10 79 -22 99 -46 75 -17 -17 -33 -194 -34
-385 0 -92 2 -104 23 -126 69 -75 403 -115 617 -73 257 49 439 199 511 418 20
62 24 92 24 203 -1 114 -4 140 -28 211 -58 174 -178 311 -467 535 -188 146
-265 222 -308 303 -23 44 -27 63 -26 136 0 68 4 94 22 127 34 65 75 106 139
139 55 27 65 29 178 29 102 0 127 -3 167 -22 108 -50 191 -163 206 -281 5 -42
11 -58 24 -60 29 -6 35 31 41 245 l5 203 -51 15 c-117 33 -332 50 -447 35z"/>
<path d="M13575 5710 c-307 -33 -561 -151 -748 -349 -301 -320 -400 -811 -246
-1234 115 -319 365 -545 690 -626 248 -61 538 -48 771 35 440 157 728 544 767
1033 33 412 -114 767 -399 961 -216 147 -523 213 -835 180z m230 -156 c107
-27 219 -89 307 -172 44 -42 98 -103 120 -135 124 -182 188 -421 188 -697 0
-611 -274 -960 -735 -937 -193 9 -349 75 -487 205 -199 188 -301 472 -301 837
0 337 76 570 237 730 166 165 426 230 671 169z"/>
<path d="M11230 5565 c-85 -7 -245 -16 -355 -19 -254 -8 -305 -14 -312 -32 -9
-24 2 -27 86 -30 97 -3 144 -22 168 -66 17 -31 18 -79 17 -873 -1 -1119 3
-1091 -168 -1114 -62 -8 -87 -24 -69 -42 6 -6 44 -9 99 -6 49 2 226 9 394 16
360 15 370 16 370 40 0 16 -12 19 -100 26 -182 12 -185 20 -185 495 l0 335
153 3 152 3 93 -127 c380 -522 455 -607 585 -671 l76 -38 246 1 c263 0 303 4
298 32 -3 13 -18 18 -71 24 -216 21 -310 103 -781 682 l-186 229 108 111 c183
188 252 326 260 518 3 88 1 119 -16 175 -52 168 -167 273 -353 318 -88 22
-321 27 -509 10z m315 -169 c156 -77 235 -231 235 -461 0 -219 -86 -403 -218
-466 -82 -40 -358 -37 -384 4 -4 7 -8 217 -8 468 0 510 -5 476 73 490 23 4 84
6 135 5 83 -3 100 -7 167 -40z"/>
<path d="M10230 5531 c-45 -27 -454 -59 -1006 -81 -148 -6 -277 -13 -286 -16
-10 -3 -18 -14 -18 -23 0 -16 11 -19 94 -23 104 -4 134 -17 163 -71 17 -30 18
-84 17 -837 -2 -822 -8 -978 -41 -1061 -19 -48 -36 -58 -127 -73 -50 -9 -72
-17 -74 -28 -2 -8 4 -18 14 -22 9 -3 98 0 198 9 99 8 363 19 586 25 509 13
514 14 535 64 18 42 45 244 45 332 0 57 -2 64 -20 64 -13 0 -22 -9 -26 -27
-52 -233 -119 -275 -444 -277 -172 -1 -195 3 -239 39 -48 41 -53 85 -49 500
l3 370 50 7 c28 4 133 8 235 10 160 3 189 1 217 -14 52 -29 71 -62 79 -139 5
-57 10 -69 25 -69 23 0 26 13 34 154 4 66 13 162 19 214 14 112 6 123 -53 70
-29 -27 -52 -38 -102 -47 -71 -13 -490 -42 -501 -34 -5 2 -8 174 -8 382 0 291
3 381 13 389 18 15 411 25 477 12 94 -18 128 -57 139 -160 5 -47 9 -55 28 -58
26 -4 27 2 43 193 6 72 14 154 17 183 6 54 -2 63 -37 43z"/>
<path d="M1365 5349 c-433 -44 -714 -294 -715 -637 0 -148 57 -309 159 -443
95 -125 206 -220 541 -461 196 -142 295 -253 340 -381 30 -84 29 -203 -1 -282
-44 -118 -175 -218 -327 -251 -258 -54 -519 45 -621 236 -35 65 -71 193 -71
251 0 68 -48 87 -69 28 -14 -42 -35 -496 -24 -539 7 -29 18 -39 63 -62 170
-84 564 -113 815 -59 375 79 616 325 641 655 16 210 -60 409 -223 586 -93 101
-210 196 -417 340 -207 145 -310 230 -366 304 -166 219 -63 486 211 551 132
31 303 14 411 -41 111 -56 208 -190 225 -313 9 -62 32 -86 59 -59 14 13 18 55
25 259 9 277 14 260 -75 279 -172 37 -428 55 -581 39z"/>
<path d="M7424 5340 c-62 -4 -226 -17 -365 -29 -140 -11 -332 -24 -427 -29
-135 -6 -175 -11 -182 -22 -14 -23 -1 -28 90 -32 104 -5 139 -21 165 -73 19
-39 20 -59 17 -750 -3 -718 -12 -1028 -32 -1099 -17 -56 -49 -83 -106 -91 -78
-10 -109 -20 -109 -35 0 -21 58 -24 210 -9 75 7 294 13 515 14 347 1 397 4
501 23 512 94 838 357 983 792 119 357 69 737 -132 999 -131 172 -324 280
-579 326 -105 19 -394 27 -549 15z m233 -159 c361 -70 590 -282 679 -629 61
-237 34 -582 -62 -791 -96 -210 -301 -360 -567 -417 -203 -43 -424 -37 -527
14 -84 42 -90 54 -101 233 -15 236 -1 1527 17 1556 13 20 26 24 139 47 11 2
88 4 172 5 113 1 178 -4 250 -18z"/>
<path d="M6150 5253 c-19 -1 -78 -8 -130 -14 -52 -5 -184 -14 -294 -19 -109
-5 -207 -12 -217 -15 -11 -4 -19 -15 -19 -26 0 -17 8 -19 90 -19 148 0 176
-27 190 -184 4 -50 11 -370 15 -711 l7 -620 -49 45 c-26 25 -147 142 -268 260
-121 119 -362 349 -535 512 -173 162 -407 384 -520 492 -212 202 -241 222
-259 174 -5 -13 -18 -438 -30 -946 -12 -508 -26 -946 -31 -973 -20 -102 -46
-125 -164 -140 -75 -10 -98 -21 -79 -40 8 -8 44 -10 110 -6 54 3 211 10 348
16 301 14 315 15 315 41 0 18 -7 20 -72 20 -195 0 -206 24 -218 470 -5 168
-11 462 -15 655 l-7 350 239 -235 c131 -129 335 -325 453 -435 118 -109 287
-267 375 -350 289 -273 460 -428 490 -447 40 -24 64 -23 74 5 4 12 11 171 15
352 14 741 37 1524 46 1583 15 105 45 135 156 155 66 13 90 31 63 48 -8 5 -21
8 -29 7 -8 -1 -31 -3 -50 -5z"/>
<path d="M25092 5213 c-17 -25 -208 -455 -661 -1493 -83 -190 -167 -367 -186
-395 -57 -82 -120 -115 -225 -115 -62 0 -86 -11 -77 -33 5 -14 52 -16 377 -15
319 0 372 2 377 15 9 23 -16 33 -80 33 -57 0 -94 12 -109 34 -13 19 -9 101 8
149 8 25 55 137 102 249 l87 203 341 3 c270 2 344 0 352 -11 19 -23 90 -215
132 -358 22 -77 56 -184 75 -239 19 -55 35 -107 35 -118 0 -25 -19 -42 -47
-42 -29 0 -30 -16 -2 -30 21 -12 423 -38 634 -43 93 -2 110 0 113 14 2 13 -13
18 -79 27 -106 15 -155 44 -212 125 -77 108 -108 181 -422 984 -170 434 -338
834 -412 983 -41 81 -52 95 -74 98 -20 2 -32 -4 -47 -25z m1 -590 c14 -38 75
-194 135 -348 61 -154 108 -283 106 -287 -8 -12 -552 -10 -559 2 -3 5 53 155
126 332 72 178 135 333 140 346 14 36 25 26 52 -45z"/>
<path d="M3588 5090 c-47 -28 -482 -67 -1008 -91 -260 -12 -305 -18 -305 -39
0 -12 20 -16 90 -20 55 -4 102 -12 121 -22 61 -33 59 -12 57 -817 -3 -916 -12
-1048 -77 -1083 -11 -7 -52 -17 -91 -23 -50 -8 -71 -15 -73 -27 -5 -24 19 -28
125 -18 54 5 285 14 513 20 475 12 654 23 675 40 7 6 19 26 24 43 16 48 41
233 41 305 0 55 -2 62 -20 62 -14 0 -22 -11 -30 -42 -26 -98 -34 -119 -62
-153 -63 -75 -154 -99 -388 -99 -197 -1 -230 9 -261 80 -18 39 -19 69 -17 416
l3 373 55 7 c30 4 136 8 235 10 248 4 277 -11 292 -152 5 -49 9 -60 24 -60 23
0 26 13 34 150 4 63 13 156 20 205 16 107 9 122 -37 78 -45 -42 -62 -49 -143
-61 -116 -18 -464 -37 -473 -26 -4 5 -6 172 -4 371 l4 362 41 6 c23 4 139 7
257 8 283 3 299 -4 324 -142 8 -45 17 -67 28 -69 22 -4 28 17 38 157 6 69 15
151 20 183 14 74 6 90 -32 68z"/>
<path d="M26662 4983 c-15 -28 -76 -417 -69 -436 4 -10 15 -17 26 -17 15 0 23
11 32 42 17 63 43 109 86 149 64 62 105 76 248 89 93 9 710 -6 779 -18 l39 -7
-215 -300 c-256 -359 -412 -570 -771 -1049 -296 -394 -310 -415 -298 -435 6
-9 105 -23 347 -47 683 -68 969 -91 1197 -96 130 -3 138 2 166 114 30 115 54
292 47 332 -10 53 -42 50 -57 -6 -15 -58 -62 -148 -91 -175 -80 -75 -233 -101
-492 -84 -200 14 -639 50 -642 54 -2 2 67 95 152 207 393 518 762 1029 1006
1394 115 171 137 211 126 221 -10 10 -130 16 -473 24 -657 16 -916 30 -1097
57 -29 5 -38 2 -46 -13z"/>
<path d="M20200 4798 c-58 -5 -246 -6 -417 -3 -267 5 -313 4 -313 -8 0 -10 17
-16 57 -20 67 -7 104 -31 116 -76 4 -19 7 -286 5 -595 -4 -602 -5 -618 -55
-637 -13 -5 -39 -9 -58 -9 -34 0 -57 -17 -33 -24 7 -2 195 -7 418 -10 326 -5
409 -4 424 7 17 13 46 157 46 235 0 40 -27 44 -36 5 -12 -55 -17 -68 -35 -94
-31 -44 -71 -54 -214 -54 -83 0 -141 5 -160 13 -58 24 -60 32 -63 320 l-3 262
128 0 c201 -1 238 -16 251 -105 11 -74 29 -68 36 12 4 37 10 105 14 151 4 45
6 85 3 87 -2 3 -15 -4 -27 -16 -32 -30 -86 -38 -256 -39 l-148 0 0 250 0 250
138 -1 c209 -1 256 -22 269 -117 8 -63 30 -53 37 16 19 195 19 212 0 211 -11
-1 -66 -6 -124 -11z"/>
<path d="M17716 4793 c-14 -14 -3 -20 47 -26 71 -7 104 -24 117 -60 13 -39 14
-1079 0 -1161 -5 -33 -16 -66 -24 -74 -8 -8 -37 -17 -65 -20 -31 -3 -51 -9
-51 -17 0 -9 68 -14 268 -21 548 -17 633 -9 822 83 232 112 370 348 370 631 0
191 -57 339 -180 463 -92 93 -197 149 -340 181 -87 19 -132 21 -526 24 -237 2
-434 1 -438 -3z m809 -113 c293 -93 449 -333 432 -665 -11 -187 -52 -299 -141
-383 -115 -109 -231 -146 -439 -140 -146 3 -192 18 -231 71 -21 28 -21 41 -24
571 -3 507 -2 544 14 561 27 27 290 17 389 -15z"/>
<path d="M8588 1651 c-106 -17 -148 -28 -148 -37 0 -10 14 -14 49 -14 64 0 85
-19 77 -69 -3 -20 -68 -253 -145 -518 -77 -265 -143 -502 -146 -527 -7 -42 -5
-48 23 -76 17 -16 39 -30 49 -30 33 1 91 27 131 58 56 45 126 138 118 158 -5
13 -20 2 -70 -51 -70 -75 -99 -83 -104 -29 -2 17 65 267 158 589 88 308 159
562 158 565 -2 3 -69 -5 -150 -19z"/>
<path d="M10067 1654 c-76 -12 -145 -25 -153 -28 -30 -11 -12 -26 32 -26 61 0
84 -14 84 -50 0 -16 -23 -112 -51 -212 -48 -172 -68 -230 -69 -201 0 7 -19 26
-42 43 -73 53 -178 39 -297 -39 -298 -195 -422 -646 -204 -743 103 -45 227 29
365 219 33 46 62 83 63 83 2 0 -8 -35 -22 -77 -14 -43 -27 -103 -30 -135 -5
-51 -3 -59 20 -82 14 -14 34 -26 44 -26 53 1 155 74 225 163 25 31 28 41 17
47 -9 6 -32 -9 -76 -51 -35 -34 -69 -59 -76 -56 -27 9 -3 111 152 641 89 302
160 550 159 551 -2 1 -65 -8 -141 -21z m-248 -499 c97 -50 70 -239 -62 -437
-125 -187 -222 -258 -298 -218 -52 29 -68 149 -34 267 26 91 104 229 170 301
85 93 158 121 224 87z"/>
<path d="M11888 1651 c-106 -17 -148 -28 -148 -37 0 -10 14 -14 49 -14 52 0
81 -17 81 -48 0 -9 -26 -108 -58 -220 l-58 -203 -24 27 c-38 40 -74 54 -138
54 -80 0 -176 -48 -271 -136 -213 -198 -296 -500 -173 -636 64 -71 146 -71
249 -1 54 36 106 92 188 203 27 36 46 58 43 50 -15 -41 -40 -135 -48 -180 -24
-128 56 -164 175 -79 44 32 135 132 135 150 0 27 -28 15 -67 -30 -56 -64 -80
-78 -100 -58 -18 18 -32 -37 163 635 85 294 154 537 152 541 -2 4 -69 -4 -150
-18z m-205 -521 c28 -32 29 -36 25 -114 -4 -58 -13 -99 -33 -146 -33 -80 -120
-214 -177 -277 -98 -106 -160 -128 -220 -74 -28 25 -32 35 -36 92 -7 120 44
266 143 405 80 111 148 157 225 150 35 -3 51 -11 73 -36z"/>
<path d="M15008 1651 c-106 -17 -148 -28 -148 -37 0 -10 14 -14 48 -14 67 0
86 -16 80 -67 -3 -22 -67 -251 -142 -509 -163 -564 -163 -566 -141 -600 51
-79 166 -38 277 101 37 46 45 61 36 72 -9 11 -21 3 -60 -42 -28 -30 -58 -60
-68 -65 -26 -14 -50 -2 -50 26 0 13 72 277 161 585 88 308 159 564 157 568 -2
4 -69 -4 -150 -18z"/>
<path d="M504 1640 c-101 -21 -186 -85 -232 -175 -21 -41 -26 -63 -26 -125 1
-122 12 -138 242 -384 46 -49 100 -114 120 -144 35 -52 37 -60 37 -131 0 -59
-5 -85 -22 -118 -47 -87 -140 -132 -250 -119 -70 8 -110 25 -158 67 -61 54
-85 117 -85 227 0 56 -4 92 -10 92 -15 0 -16 -5 -69 -239 -41 -182 -45 -211
-31 -211 9 0 26 13 38 30 33 44 57 45 158 9 80 -29 100 -33 204 -33 97 -1 124
3 171 22 76 30 143 92 182 166 30 57 32 68 32 161 0 92 -2 104 -30 155 -18 33
-89 115 -181 210 -84 86 -161 175 -174 200 -49 97 -20 198 73 251 34 20 55 24
117 24 64 -1 83 -5 129 -30 92 -51 124 -109 124 -227 0 -57 3 -78 13 -78 7 0
15 8 18 18 10 33 86 370 86 381 0 22 -26 10 -53 -24 -35 -44 -65 -45 -174 -5
-89 32 -185 44 -249 30z"/>
<path d="M2516 1478 c-20 -79 -39 -151 -42 -160 -4 -12 0 -18 11 -18 8 0 18 8
21 18 29 92 79 159 145 192 41 21 140 40 212 40 41 0 48 -3 43 -17 -3 -10 -59
-205 -126 -433 -159 -545 -169 -575 -206 -618 -27 -32 -36 -36 -92 -40 -52 -4
-62 -7 -62 -23 0 -18 12 -19 259 -19 227 0 260 2 265 16 3 9 6 17 6 19 0 1
-30 5 -66 7 -86 5 -109 28 -100 99 4 26 68 262 144 526 l138 478 101 -1 c59
-1 116 -7 134 -14 52 -22 72 -98 50 -192 -8 -33 -6 -38 8 -38 14 0 28 34 64
153 26 83 47 155 47 160 0 4 -206 7 -458 7 l-459 0 -37 -142z"/>
<path d="M17500 1605 c0 -17 7 -20 62 -30 21 -3 49 -16 63 -28 l24 -22 -140
-480 c-77 -264 -150 -500 -162 -525 -27 -53 -72 -80 -134 -80 -36 0 -43 -3
-43 -20 0 -20 5 -20 197 -18 172 3 198 5 201 19 2 13 -9 17 -50 22 -58 7 -88
32 -88 73 0 12 50 198 111 411 140 490 131 460 135 448 2 -5 28 -226 59 -489
30 -264 58 -482 61 -485 3 -3 12 -1 21 5 9 6 172 227 362 492 190 264 347 480
348 478 7 -7 -231 -814 -252 -857 -29 -57 -50 -70 -125 -78 -41 -5 -56 -10
-58 -24 -3 -16 12 -17 250 -15 231 3 253 4 256 21 3 14 -4 17 -38 17 -82 0
-120 40 -106 114 15 81 259 896 282 944 27 56 62 82 111 82 43 0 73 11 73 26
0 11 -29 14 -149 14 l-149 0 -348 -485 c-192 -266 -351 -484 -354 -485 -3 0
-30 208 -58 463 -29 254 -55 472 -58 485 -4 22 -7 22 -154 22 -128 0 -150 -2
-150 -15z"/>
<path d="M23975 1610 c-11 -17 5 -30 38 -30 37 0 101 -31 105 -51 3 -19 -272
-961 -295 -1006 -25 -51 -64 -77 -126 -83 -39 -4 -53 -9 -55 -23 -3 -16 10
-17 195 -15 179 3 198 5 201 20 3 14 -3 18 -27 18 -36 0 -83 17 -93 33 -4 7
-8 28 -8 47 -1 35 231 863 239 855 2 -3 29 -222 60 -487 46 -398 59 -483 71
-486 11 -2 130 156 364 483 192 267 351 484 353 482 7 -7 -217 -779 -242 -834
-29 -65 -71 -93 -136 -93 -43 0 -59 -10 -59 -36 0 -2 114 -4 254 -4 222 0 255
2 260 16 3 9 6 17 6 19 0 1 -25 5 -55 7 -81 7 -99 27 -92 103 6 67 246 894
277 954 27 54 64 81 111 81 47 0 69 8 69 26 0 11 -28 14 -147 14 l-148 -1
-349 -485 c-192 -266 -351 -482 -354 -480 -4 5 -111 911 -112 949 0 15 -14 17
-149 17 -89 0 -152 -4 -156 -10z"/>
<path d="M8039 1541 c-57 -58 -21 -146 60 -146 50 0 79 26 88 78 5 31 1 40
-25 67 -41 40 -83 41 -123 1z"/>
<path d="M9059 1541 c-57 -58 -21 -146 60 -146 50 0 79 26 88 78 5 31 1 40
-25 67 -41 40 -83 41 -123 1z"/>
<path d="M19945 1558 c-32 -19 -44 -40 -45 -80 0 -91 116 -120 163 -41 16 28
17 38 7 68 -18 54 -79 79 -125 53z"/>
<path d="M1135 1193 c-50 -26 -108 -78 -143 -127 -29 -40 -31 -47 -17 -53 10
-3 20 -1 24 4 17 27 71 82 90 93 32 17 52 -3 44 -43 -3 -18 -32 -124 -63 -237
-91 -324 -96 -359 -55 -408 32 -39 68 -46 128 -28 95 29 194 127 325 325 35
53 60 85 56 71 -36 -121 -74 -267 -79 -304 -13 -86 44 -125 127 -88 75 33 194
170 170 194 -7 7 -13 10 -15 7 -1 -2 -24 -30 -51 -62 -35 -42 -54 -57 -70 -55
-18 3 -21 9 -19 44 1 32 152 578 179 648 5 14 -4 16 -62 16 l-69 0 -35 -113
c-43 -140 -103 -262 -182 -369 -134 -184 -242 -259 -282 -195 -12 19 5 92 90
377 54 184 66 271 39 300 -22 25 -87 26 -130 3z"/>
<path d="M3531 1186 c-68 -11 -123 -24 -122 -28 0 -5 1 -11 1 -16 0 -4 20 -6
46 -4 63 6 88 -17 78 -73 -3 -22 -46 -175 -95 -340 -49 -165 -89 -305 -89
-312 0 -9 19 -13 63 -13 l63 0 27 95 c39 141 81 232 158 349 82 124 188 240
215 234 10 -2 21 -16 26 -36 9 -34 38 -53 70 -44 49 12 91 127 66 179 -11 23
-21 29 -54 31 -77 6 -191 -103 -331 -316 -35 -53 -63 -92 -63 -87 0 7 92 322
110 378 8 25 7 27 -18 26 -15 -1 -83 -11 -151 -23z"/>
<path d="M4429 1178 c-86 -43 -202 -159 -263 -263 -97 -166 -128 -350 -76
-445 32 -59 97 -94 155 -85 77 11 146 54 239 149 65 66 88 84 83 66 -37 -136
-33 -185 17 -209 36 -17 82 -5 150 40 59 40 134 135 118 151 -8 8 -27 -6 -69
-51 -32 -33 -64 -61 -70 -61 -30 0 -32 37 -8 126 24 93 162 579 170 602 4 11
-7 13 -57 7 -35 -4 -68 -11 -74 -16 -6 -5 -16 -28 -23 -51 l-13 -43 -19 37
c-30 59 -62 78 -134 78 -50 0 -74 -6 -126 -32z m203 -37 c30 -26 33 -34 36
-101 9 -151 -51 -299 -181 -445 -78 -90 -168 -127 -228 -95 -117 63 -18 426
161 594 88 82 156 97 212 47z"/>
<path d="M5166 1184 c-71 -13 -131 -26 -133 -28 -3 -3 -2 -10 2 -16 5 -8 21
-10 44 -6 26 4 44 1 60 -11 21 -14 23 -22 18 -62 -3 -25 -44 -177 -91 -338
-48 -161 -86 -299 -86 -308 0 -13 11 -15 62 -13 l61 3 41 125 c73 220 233 470
353 549 78 52 121 36 110 -42 -3 -23 -36 -145 -73 -272 -36 -126 -69 -255 -71
-286 -5 -52 -4 -57 23 -78 35 -27 69 -23 134 17 57 35 165 161 150 176 -7 7
-28 -9 -68 -52 -58 -62 -87 -76 -99 -46 -3 8 27 129 67 267 42 145 74 280 77
317 5 60 3 68 -22 98 -23 28 -33 32 -76 32 -107 0 -208 -88 -368 -319 -28 -41
-51 -71 -51 -67 0 8 98 350 107 374 7 16 -17 15 -171 -14z"/>
<path d="M6260 1178 c-79 -40 -219 -175 -269 -260 -60 -104 -84 -175 -89 -269
-5 -104 13 -170 59 -217 99 -101 247 -46 400 149 64 80 72 89 64 67 -2 -7 -29
-103 -60 -213 -78 -279 -92 -318 -124 -349 -17 -16 -43 -29 -67 -32 -71 -10
-84 -14 -84 -29 0 -13 31 -15 209 -15 143 0 212 4 217 11 8 14 -14 29 -43 29
-13 0 -32 9 -44 21 -17 17 -20 29 -15 58 3 20 73 269 156 555 83 285 149 521
146 523 -3 3 -33 -1 -67 -8 l-62 -14 -17 -50 c-16 -47 -18 -48 -25 -24 -3 15
-22 42 -41 60 -32 31 -40 34 -107 37 -65 2 -79 -1 -137 -30z m201 -25 c16 -9
35 -31 44 -49 78 -164 -185 -614 -360 -614 -13 0 -39 13 -57 29 l-33 29 1 99
c0 79 5 111 26 166 53 141 178 310 253 343 42 18 92 17 126 -3z"/>
<path d="M6979 1182 c-42 -27 -149 -137 -149 -153 0 -4 5 -11 11 -15 7 -4 28
13 51 40 22 25 48 51 58 56 25 14 50 2 50 -23 0 -11 -29 -125 -65 -252 -94
-333 -98 -395 -32 -436 38 -24 87 -20 150 13 62 31 183 160 262 281 38 58 71
105 72 103 1 -1 -13 -56 -32 -122 -57 -194 -58 -266 -7 -285 47 -18 109 7 172
70 81 81 103 116 86 130 -11 10 -23 1 -58 -44 -44 -57 -83 -79 -99 -54 -11 18
-12 13 92 376 49 171 89 314 89 317 0 3 -29 6 -64 6 l-64 0 -41 -126 c-62
-187 -110 -274 -241 -437 -93 -116 -192 -169 -219 -119 -12 23 -2 71 79 347
69 234 80 316 46 341 -33 24 -97 17 -147 -14z"/>
<path d="M7930 1186 c-98 -17 -125 -25 -128 -38 -3 -14 4 -16 51 -11 48 5 56
3 70 -16 19 -28 14 -51 -83 -385 -39 -132 -70 -253 -70 -268 0 -96 100 -112
203 -33 54 41 140 143 131 156 -11 18 -26 8 -81 -51 -61 -67 -95 -77 -101 -30
-2 19 150 591 183 688 6 16 -23 14 -175 -12z"/>
<path d="M8950 1186 c-98 -17 -125 -25 -128 -38 -3 -14 4 -16 51 -11 48 5 56
3 70 -16 19 -28 14 -51 -83 -385 -39 -132 -70 -253 -70 -268 0 -96 100 -112
203 -33 54 41 140 143 131 156 -11 18 -26 8 -81 -51 -61 -67 -95 -77 -101 -30
-2 19 150 591 183 688 6 16 -23 14 -175 -12z"/>
<path d="M10550 1179 c-83 -41 -212 -168 -268 -264 -78 -134 -118 -308 -93
-403 16 -58 63 -109 113 -123 98 -26 221 44 351 200 42 50 43 48 22 -29 -16
-59 -19 -128 -7 -146 4 -6 17 -16 30 -23 51 -27 142 17 226 111 60 66 64 73
42 81 -10 4 -30 -12 -57 -44 -51 -61 -74 -75 -95 -58 -21 17 -18 28 87 396 49
172 89 317 89 324 0 7 -16 9 -52 4 -82 -10 -85 -12 -97 -60 -6 -25 -13 -45
-16 -45 -3 0 -11 15 -18 33 -24 55 -51 71 -125 75 -59 3 -74 0 -132 -29z m180
-22 c78 -39 80 -200 3 -367 -71 -155 -199 -288 -288 -298 -146 -16 -164 173
-40 418 61 121 133 204 210 240 47 23 80 25 115 7z"/>
<path d="M12904 1196 c-210 -66 -395 -296 -411 -510 -6 -86 7 -139 51 -202 48
-71 108 -99 206 -98 93 1 166 26 258 88 103 70 146 111 139 130 -6 14 -14 11
-59 -22 -155 -114 -267 -136 -363 -71 -62 42 -107 169 -76 218 5 8 47 19 97
27 237 38 425 148 462 271 16 52 15 68 -3 107 -26 54 -78 76 -176 75 -46 0
-102 -6 -125 -13z m161 -51 c35 -34 33 -86 -5 -151 -36 -63 -85 -105 -168
-145 -65 -31 -216 -69 -228 -57 -10 11 34 130 67 184 98 156 264 240 334 169z"/>
<path d="M13500 1189 c-52 -10 -110 -21 -127 -24 -21 -4 -33 -12 -33 -22 0
-13 8 -14 41 -9 53 9 89 -12 89 -52 0 -21 -132 -492 -186 -665 -5 -16 1 -18
62 -15 l67 3 37 115 c42 133 84 219 168 345 74 113 134 180 191 217 78 49 119
32 107 -44 -4 -24 -36 -144 -72 -268 -89 -307 -94 -370 -25 -385 59 -13 145
42 225 144 38 49 44 62 32 67 -11 4 -24 -4 -38 -22 -64 -84 -119 -114 -126
-69 -1 11 31 138 73 283 84 296 90 342 49 391 -22 27 -32 31 -75 31 -33 0 -66
-8 -97 -24 -60 -30 -160 -136 -248 -261 -37 -52 -69 -93 -71 -91 -2 2 21 87
50 190 l55 186 -27 -1 c-14 -1 -69 -10 -121 -20z"/>
<path d="M15555 1185 c-119 -57 -239 -186 -310 -332 -46 -95 -65 -171 -65
-264 0 -98 26 -152 91 -187 89 -47 188 -7 325 134 l91 93 -18 -71 c-24 -90
-24 -120 0 -149 49 -61 193 2 276 120 20 30 25 45 17 53 -8 8 -27 -6 -70 -52
-117 -123 -117 -71 -2 330 50 173 93 323 96 334 6 17 2 18 -51 11 -79 -9 -82
-11 -96 -53 -16 -50 -25 -58 -33 -29 -3 14 -22 39 -41 56 -32 28 -42 31 -98
31 -45 -1 -76 -8 -112 -25z m192 -50 l36 -36 -5 -102 c-4 -79 -11 -116 -30
-165 -75 -184 -223 -342 -321 -342 -75 0 -107 41 -107 137 0 83 23 163 79 278
79 161 189 265 280 265 25 0 42 -9 68 -35z"/>
<path d="M16329 1187 c-62 -33 -101 -92 -107 -161 -6 -72 23 -132 123 -256 92
-115 115 -156 115 -210 0 -95 -75 -151 -180 -134 -86 14 -142 82 -156 190 -5
43 -10 54 -22 52 -12 -2 -23 -37 -42 -141 -15 -78 -23 -140 -18 -144 5 -3 20
4 32 16 27 25 68 27 127 5 64 -24 183 -22 239 3 54 24 103 71 131 126 17 31
20 54 17 102 -5 76 -37 134 -151 266 -108 127 -122 171 -69 230 58 65 186 40
226 -45 13 -27 36 -119 36 -142 0 -2 7 -4 15 -4 8 0 15 2 15 4 0 2 11 58 25
126 30 147 30 140 5 140 -11 0 -20 -4 -20 -9 0 -5 -12 -14 -28 -20 -22 -9 -38
-8 -86 9 -82 28 -170 27 -227 -3z"/>
<path d="M19225 1196 c-85 -27 -152 -70 -231 -150 -65 -65 -89 -98 -122 -166
-50 -105 -66 -174 -60 -254 8 -99 68 -190 148 -224 52 -23 172 -19 244 6 106
38 275 164 263 196 -5 14 -16 9 -69 -30 -94 -70 -156 -95 -231 -96 -39 0 -76
6 -94 15 -71 37 -121 131 -109 206 7 42 14 47 87 55 97 11 209 45 292 88 195
102 259 280 125 349 -44 23 -179 25 -243 5z m160 -51 c70 -69 -14 -219 -166
-294 -64 -31 -222 -71 -235 -59 -10 11 34 130 67 184 98 156 264 240 334 169z"/>
<path d="M19855 1189 c-55 -10 -115 -21 -132 -24 -54 -10 -41 -33 15 -32 66 3
86 -15 79 -68 -10 -66 -244 -851 -271 -902 -13 -26 -32 -56 -43 -65 -27 -24
-87 -48 -123 -48 -33 0 -38 11 -15 30 18 15 20 51 3 68 -19 19 -76 14 -98 -8
-27 -27 -25 -63 4 -97 23 -26 29 -28 103 -28 70 0 85 4 141 34 35 19 83 57
108 84 78 87 113 179 247 645 117 407 123 432 103 431 -11 -1 -66 -9 -121 -20z"/>
<path d="M20535 1196 c-217 -69 -384 -278 -402 -501 -6 -83 6 -136 46 -195 84
-126 248 -150 428 -64 182 87 313 290 313 484 0 94 -12 138 -53 192 -49 66
-122 98 -216 97 -42 0 -94 -6 -116 -13z m153 -40 c93 -49 112 -154 61 -345
-40 -151 -150 -316 -242 -363 -31 -15 -53 -19 -94 -16 -57 5 -92 29 -119 80
-19 36 -18 165 2 248 20 86 92 233 148 302 73 90 176 129 244 94z"/>
<path d="M21220 1186 c-92 -16 -125 -25 -125 -36 0 -11 12 -13 51 -11 43 2 54
-1 67 -19 20 -29 11 -68 -88 -404 -47 -156 -85 -291 -85 -300 0 -13 12 -16 60
-16 70 0 61 -12 110 150 37 120 72 194 143 300 98 146 186 239 218 228 6 -2
17 -19 23 -37 33 -98 136 -26 136 95 0 60 -12 74 -61 74 -86 0 -208 -129 -386
-407 -6 -10 13 65 43 167 74 250 72 240 43 239 -13 -1 -80 -11 -149 -23z"/>
<path d="M22185 1196 c-151 -48 -276 -159 -356 -315 -56 -112 -75 -240 -47
-322 60 -176 233 -223 443 -120 89 44 207 143 199 166 -4 11 -26 0 -84 -40
-93 -66 -146 -86 -221 -87 -117 0 -190 71 -197 193 l-4 68 33 5 c19 3 63 11
99 17 200 34 367 126 422 234 43 82 22 159 -53 197 -41 22 -172 23 -234 4z
m160 -51 c46 -45 23 -137 -54 -214 -69 -69 -238 -140 -333 -141 l-27 0 18 53
c32 91 71 159 128 219 98 102 214 138 268 83z"/>
<path d="M22809 1190 c-86 -45 -130 -135 -110 -223 12 -53 42 -101 139 -221
101 -125 122 -188 82 -253 -36 -60 -100 -82 -179 -63 -75 18 -122 72 -136 155
-12 75 -15 85 -30 85 -8 0 -15 -2 -15 -4 0 -2 -11 -63 -25 -136 -14 -73 -25
-137 -25 -141 0 -16 25 -9 43 11 21 25 44 25 143 -1 196 -51 367 52 368 221 1
77 -34 142 -144 270 -103 120 -120 157 -96 213 27 66 131 87 195 39 37 -27 71
-93 78 -152 4 -39 10 -50 22 -48 11 2 22 38 42 136 29 144 26 153 -31 110
l-29 -21 -64 21 c-81 28 -178 29 -228 2z"/>
<path d="M25645 1181 c-204 -99 -374 -369 -375 -594 0 -140 87 -223 207 -197
69 16 131 59 223 157 44 46 80 83 80 81 0 -2 -7 -28 -15 -58 -19 -70 -19 -141
-1 -166 21 -28 92 -24 148 9 45 26 126 106 146 144 19 34 -14 38 -43 5 -14
-15 -25 -30 -25 -34 0 -4 -16 -19 -35 -34 -29 -22 -38 -24 -50 -14 -8 7 -15
21 -15 30 0 10 43 170 96 355 53 185 93 339 91 342 -7 6 -111 -7 -124 -15 -5
-4 -17 -27 -25 -52 l-15 -45 -22 42 c-11 24 -34 49 -51 58 -48 25 -126 19
-195 -14z m182 -31 c106 -64 45 -345 -116 -533 -70 -82 -123 -119 -181 -125
-55 -5 -79 8 -106 60 -56 108 80 455 219 561 80 60 130 71 184 37z"/>
<path d="M26400 1189 c-52 -10 -110 -21 -127 -24 -21 -4 -33 -12 -33 -22 0
-13 8 -14 41 -9 50 8 89 -13 89 -48 0 -12 -43 -170 -95 -349 -52 -179 -95
-328 -95 -331 0 -3 29 -6 64 -6 l65 0 36 115 c40 128 83 218 166 345 122 187
263 296 299 231 13 -26 3 -73 -68 -321 -75 -259 -86 -309 -73 -344 14 -35 52
-49 101 -36 65 17 226 178 202 202 -8 8 -27 -7 -67 -51 -63 -67 -95 -79 -95
-34 0 15 32 140 72 278 85 298 92 360 44 402 -26 22 -37 25 -87 21 -47 -3 -69
-12 -114 -42 -54 -38 -158 -158 -245 -283 -43 -63 -53 -74 -45 -50 14 39 105
358 105 367 0 13 -27 11 -140 -11z"/>
<path d="M27493 1186 c-216 -80 -373 -297 -376 -516 -1 -158 88 -264 239 -284
166 -22 386 108 478 283 52 100 69 163 70 261 1 70 -3 94 -22 132 -26 53 -88
113 -138 134 -53 22 -178 17 -251 -10z m202 -40 c15 -10 36 -38 47 -64 66
-148 -61 -505 -220 -616 -56 -40 -141 -47 -190 -16 -98 61 -95 252 8 466 55
114 131 206 195 236 48 22 121 20 160 -6z"/>
<path d="M28270 1194 c-75 -33 -120 -102 -120 -185 0 -68 23 -114 110 -222 39
-48 84 -108 100 -134 80 -125 -4 -250 -150 -227 -87 14 -144 83 -156 187 -5
44 -10 57 -23 57 -14 0 -21 -24 -40 -127 -12 -71 -25 -136 -27 -145 -7 -25 18
-23 42 3 21 23 50 22 164 -5 116 -29 214 -2 286 76 49 54 68 104 62 168 -7 69
-38 125 -131 234 -106 126 -117 143 -117 188 0 71 78 123 154 104 33 -8 83
-52 103 -89 9 -17 18 -54 22 -81 4 -35 11 -52 22 -54 13 -2 20 19 38 110 12
62 25 123 28 136 7 29 -18 29 -57 1 l-28 -21 -63 21 c-74 25 -168 27 -219 5z"/>
</g>
</svg>
